<?xml version="1.0" encoding="UTF-8" standalone="no"?>
<!DOCTYPE svg PUBLIC "-//W3C//DTD SVG 1.1//EN"
 "http://www.w3.org/Graphics/SVG/1.1/DTD/svg11.dtd">
<!-- Generated by graphviz version 2.43.0 (0)
 -->
<!-- Title: centrak Pages: 1 -->
<svg width="1145pt" height="2842pt"
 viewBox="0.00 0.00 1145.09 2841.57" xmlns="http://www.w3.org/2000/svg" xmlns:xlink="http://www.w3.org/1999/xlink">
<g id="graph0" class="graph" transform="scale(1 1) rotate(0) translate(21.6 2819.97)">
<title>centrak</title>
<polygon fill="white" stroke="transparent" points="-21.6,21.6 -21.6,-2819.97 1123.49,-2819.97 1123.49,21.6 -21.6,21.6"/>
<text text-anchor="start" x="398.95" y="-2780.97" font-family="Helvetica Bold" font-weight="bold" font-size="18.00">Centrak 2.0 — End&#45;to&#45;end workflow</text>
<text text-anchor="start" x="349.95" y="-2768.57" font-family="Helvetica Bold" font-size="11.00" fill="#666666">Intake · NIC · Execution · Close &#160;&#160;&#160;&#160;| &#160;&#160;&#160;&#160;Process logic · Personas · Data sources</text>
<g id="clust1" class="cluster">
<title>cluster_legend</title>
<path fill="white" stroke="#bbbbbb" stroke-width="1.2" stroke-dasharray="5,2" d="M20,-2175C20,-2175 146,-2175 146,-2175 152,-2175 158,-2181 158,-2187 158,-2187 158,-2732.38 158,-2732.38 158,-2738.38 152,-2744.38 146,-2744.38 146,-2744.38 20,-2744.38 20,-2744.38 14,-2744.38 8,-2738.38 8,-2732.38 8,-2732.38 8,-2187 8,-2187 8,-2181 14,-2175 20,-2175"/>
<text text-anchor="middle" x="83" y="-2730.78" font-family="Helvetica Bold" font-size="12.00" fill="#555555">Legend</text>
</g>
<g id="clust2" class="cluster">
<title>cluster_phase1</title>
<path fill="#fafafa" stroke="#999999" stroke-width="1.2" d="M179,-2308.88C179,-2308.88 413,-2308.88 413,-2308.88 419,-2308.88 425,-2314.88 425,-2320.88 425,-2320.88 425,-2741.38 425,-2741.38 425,-2747.38 419,-2753.38 413,-2753.38 413,-2753.38 179,-2753.38 179,-2753.38 173,-2753.38 167,-2747.38 167,-2741.38 167,-2741.38 167,-2320.88 167,-2320.88 167,-2314.88 173,-2308.88 179,-2308.88"/>
<text text-anchor="start" x="175" y="-2740.78" font-family="Helvetica Bold" font-weight="bold" font-size="12.00">PHASE 1 — Business case documentation</text>
<text text-anchor="start" x="233.5" y="-2730.38" font-family="Helvetica Bold" font-size="10.00" fill="#666666">Actor: Project Prime / TPM</text>
</g>
<g id="clust3" class="cluster">
<title>cluster_phase2a</title>
<path fill="#f1f8e9" stroke="#999999" stroke-width="1.2" d="M292,-719C292,-719 686,-719 686,-719 692,-719 698,-725 698,-731 698,-731 698,-1340 698,-1340 698,-1346 692,-1352 686,-1352 686,-1352 292,-1352 292,-1352 286,-1352 280,-1346 280,-1340 280,-1340 280,-731 280,-731 280,-725 286,-719 292,-719"/>
<text text-anchor="start" x="369" y="-1339.4" font-family="Helvetica Bold" font-weight="bold" font-size="12.00">PHASE 2A — NIC approval</text>
<text text-anchor="start" x="520" y="-1339.4" font-family="Helvetica Bold" font-size="12.00"> &#160;&#160;&#160;&#160;</text>
<text text-anchor="start" x="536" y="-1339.4" font-family="Helvetica Bold" font-weight="bold" font-size="12.00" fill="#2e7d32">Funded path</text>
<text text-anchor="start" x="288" y="-1329" font-family="Helvetica Bold" font-size="10.00" fill="#666666">Actors: NIC Primes (Finance · Architecture · Security · Network domains) + NIC Chair</text>
</g>
<g id="clust7" class="cluster">
<title>cluster_data</title>
<path fill="#faf4fb" stroke="#6a1b9a" stroke-width="1.2" stroke-dasharray="5,2" d="M792,-1925C792,-1925 986,-1925 986,-1925 992,-1925 998,-1931 998,-1937 998,-1937 998,-2737.75 998,-2737.75 998,-2743.75 992,-2749.75 986,-2749.75 986,-2749.75 792,-2749.75 792,-2749.75 786,-2749.75 780,-2743.75 780,-2737.75 780,-2737.75 780,-1937 780,-1937 780,-1931 786,-1925 792,-1925"/>
<text text-anchor="start" x="821" y="-2737.15" font-family="Helvetica Bold" font-weight="bold" font-size="12.00" fill="#6a1b9a">Integrated data sources</text>
</g>
<g id="clust6" class="cluster">
<title>cluster_phase4</title>
<path fill="#fafafa" stroke="#999999" stroke-width="1.2" d="M154,-69C154,-69 553,-69 553,-69 559,-69 565,-75 565,-81 565,-81 565,-307 565,-307 565,-313 559,-319 553,-319 553,-319 154,-319 154,-319 148,-319 142,-313 142,-307 142,-307 142,-81 142,-81 142,-75 148,-69 154,-69"/>
<text text-anchor="start" x="253" y="-306.4" font-family="Helvetica Bold" font-weight="bold" font-size="12.00">PHASE 4 — Execution and tracking</text>
<text text-anchor="start" x="284" y="-296" font-family="Helvetica Bold" font-size="10.00" fill="#666666">Actors: TPM + Mae + Finance</text>
</g>
<g id="clust4" class="cluster">
<title>cluster_phase2b</title>
<path fill="#fff8e1" stroke="#999999" stroke-width="1.2" d="M434,-1390C434,-1390 760,-1390 760,-1390 766,-1390 772,-1396 772,-1402 772,-1402 772,-2100.5 772,-2100.5 772,-2106.5 766,-2112.5 760,-2112.5 760,-2112.5 434,-2112.5 434,-2112.5 428,-2112.5 422,-2106.5 422,-2100.5 422,-2100.5 422,-1402 422,-1402 422,-1396 428,-1390 434,-1390"/>
<text text-anchor="start" x="457.5" y="-2099.9" font-family="Helvetica Bold" font-weight="bold" font-size="12.00">PHASE 2B — Intake</text>
<text text-anchor="start" x="569.5" y="-2099.9" font-family="Helvetica Bold" font-size="12.00"> &#160;&#160;&#160;&#160;</text>
<text text-anchor="start" x="585.5" y="-2099.9" font-family="Helvetica Bold" font-weight="bold" font-size="12.00" fill="#e65100">Unfunded or no resources</text>
<text text-anchor="start" x="522" y="-2089.5" font-family="Helvetica Bold" font-size="10.00" fill="#666666">Actor: Mae + review committees</text>
</g>
<g id="clust5" class="cluster">
<title>cluster_phase3</title>
<path fill="#fce4ec" stroke="#999999" stroke-width="1.2" d="M278,-340C278,-340 444,-340 444,-340 450,-340 456,-346 456,-352 456,-352 456,-686 456,-686 456,-692 450,-698 444,-698 444,-698 278,-698 278,-698 272,-698 266,-692 266,-686 266,-686 266,-352 266,-352 266,-346 272,-340 278,-340"/>
<text text-anchor="start" x="298.5" y="-685.4" font-family="Helvetica Bold" font-weight="bold" font-size="12.00">PHASE 3 — VP review</text>
<text text-anchor="start" x="290.5" y="-675" font-family="Helvetica Bold" font-size="10.00" fill="#666666">Actor: VPs (consultation only)</text>
</g>
<!-- L1 -->
<g id="node1" class="node">
<title>L1</title>
<path fill="#e8f5e9" stroke="#2e7d32" stroke-width="1.4" d="M124.5,-2715.38C124.5,-2715.38 41.5,-2715.38 41.5,-2715.38 35.5,-2715.38 29.5,-2709.38 29.5,-2703.38 29.5,-2703.38 29.5,-2691.38 29.5,-2691.38 29.5,-2685.38 35.5,-2679.38 41.5,-2679.38 41.5,-2679.38 124.5,-2679.38 124.5,-2679.38 130.5,-2679.38 136.5,-2685.38 136.5,-2691.38 136.5,-2691.38 136.5,-2703.38 136.5,-2703.38 136.5,-2709.38 130.5,-2715.38 124.5,-2715.38"/>
<text text-anchor="middle" x="83" y="-2694.57" font-family="Helvetica,sans-Serif" font-size="11.00">Confirmed step</text>
</g>
<!-- L2 -->
<g id="node2" class="node">
<title>L2</title>
<path fill="#fff3e0" stroke="#e65100" stroke-width="1.4" d="M137.5,-2608.62C137.5,-2608.62 28.5,-2608.62 28.5,-2608.62 22.5,-2608.62 16.5,-2602.62 16.5,-2596.62 16.5,-2596.62 16.5,-2584.62 16.5,-2584.62 16.5,-2578.62 22.5,-2572.62 28.5,-2572.62 28.5,-2572.62 137.5,-2572.62 137.5,-2572.62 143.5,-2572.62 149.5,-2578.62 149.5,-2584.62 149.5,-2584.62 149.5,-2596.62 149.5,-2596.62 149.5,-2602.62 143.5,-2608.62 137.5,-2608.62"/>
<text text-anchor="middle" x="83" y="-2587.82" font-family="Helvetica,sans-Serif" font-size="11.00">To validate with Bell</text>
</g>
<!-- L1&#45;&gt;L2 -->
<!-- L3 -->
<g id="node3" class="node">
<title>L3</title>
<path fill="#e3f2fd" stroke="#1565c0" stroke-width="1.4" d="M71.43,-2477.57C71.43,-2477.57 29.15,-2465.93 29.15,-2465.93 23.37,-2464.34 23.37,-2461.16 29.15,-2459.57 29.15,-2459.57 71.43,-2447.93 71.43,-2447.93 77.21,-2446.34 88.79,-2446.34 94.57,-2447.93 94.57,-2447.93 136.85,-2459.57 136.85,-2459.57 142.63,-2461.16 142.63,-2464.34 136.85,-2465.93 136.85,-2465.93 94.57,-2477.57 94.57,-2477.57 88.79,-2479.16 77.21,-2479.16 71.43,-2477.57"/>
<text text-anchor="middle" x="83" y="-2459.95" font-family="Helvetica,sans-Serif" font-size="11.00">Decision</text>
</g>
<!-- L2&#45;&gt;L3 -->
<!-- L4 -->
<g id="node4" class="node">
<title>L4</title>
<path fill="#f3e5f5" stroke="#6a1b9a" stroke-width="1.4" d="M127.5,-2349.6C127.5,-2351.41 107.55,-2352.88 83,-2352.88 58.45,-2352.88 38.5,-2351.41 38.5,-2349.6 38.5,-2349.6 38.5,-2320.15 38.5,-2320.15 38.5,-2318.34 58.45,-2316.88 83,-2316.88 107.55,-2316.88 127.5,-2318.34 127.5,-2320.15 127.5,-2320.15 127.5,-2349.6 127.5,-2349.6"/>
<path fill="none" stroke="#6a1b9a" stroke-width="1.4" d="M127.5,-2349.6C127.5,-2347.8 107.55,-2346.33 83,-2346.33 58.45,-2346.33 38.5,-2347.8 38.5,-2349.6"/>
<text text-anchor="middle" x="83" y="-2332.07" font-family="Helvetica,sans-Serif" font-size="11.00">Data source</text>
</g>
<!-- L3&#45;&gt;L4 -->
<!-- L5 -->
<g id="node5" class="node">
<title>L5</title>
<path fill="#fce4ec" stroke="#ad1457" stroke-width="1.4" d="M108,-2219C108,-2219 58,-2219 58,-2219 52,-2219 46,-2213 46,-2207 46,-2207 46,-2195 46,-2195 46,-2189 52,-2183 58,-2183 58,-2183 108,-2183 108,-2183 114,-2183 120,-2189 120,-2195 120,-2195 120,-2207 120,-2207 120,-2213 114,-2219 108,-2219"/>
<text text-anchor="middle" x="83" y="-2198.2" font-family="Helvetica,sans-Serif" font-size="11.00">VP action</text>
</g>
<!-- L4&#45;&gt;L5 -->
<!-- P1 -->
<g id="node6" class="node">
<title>P1</title>
<path fill="#e8f5e9" stroke="#2e7d32" stroke-width="1.4" d="M335.5,-2715.38C335.5,-2715.38 234.5,-2715.38 234.5,-2715.38 228.5,-2715.38 222.5,-2709.38 222.5,-2703.38 222.5,-2703.38 222.5,-2691.38 222.5,-2691.38 222.5,-2685.38 228.5,-2679.38 234.5,-2679.38 234.5,-2679.38 335.5,-2679.38 335.5,-2679.38 341.5,-2679.38 347.5,-2685.38 347.5,-2691.38 347.5,-2691.38 347.5,-2703.38 347.5,-2703.38 347.5,-2709.38 341.5,-2715.38 335.5,-2715.38"/>
<text text-anchor="middle" x="285" y="-2694.57" font-family="Helvetica,sans-Serif" font-size="11.00">Initiative identified</text>
</g>
<!-- P2 -->
<g id="node7" class="node">
<title>P2</title>
<path fill="#e8f5e9" stroke="#2e7d32" stroke-width="1.4" d="M383.5,-2608.62C383.5,-2608.62 186.5,-2608.62 186.5,-2608.62 180.5,-2608.62 174.5,-2602.62 174.5,-2596.62 174.5,-2596.62 174.5,-2584.62 174.5,-2584.62 174.5,-2578.62 180.5,-2572.62 186.5,-2572.62 186.5,-2572.62 383.5,-2572.62 383.5,-2572.62 389.5,-2572.62 395.5,-2578.62 395.5,-2584.62 395.5,-2584.62 395.5,-2596.62 395.5,-2596.62 395.5,-2602.62 389.5,-2608.62 383.5,-2608.62"/>
<text text-anchor="start" x="185.5" y="-2593.82" font-family="Helvetica,sans-Serif" font-weight="bold" font-size="11.00">Create business case in Centrak</text>
<text text-anchor="start" x="197" y="-2582.82" font-family="Helvetica,sans-Serif" font-size="11.00">NPBC module — Sections 1 to 6</text>
</g>
<!-- P1&#45;&gt;P2 -->
<g id="edge5" class="edge">
<title>P1&#45;&gt;P2</title>
<path fill="none" stroke="#666666" d="M285,-2679.08C285,-2661.87 285,-2635.31 285,-2615.97"/>
<polygon fill="#666666" stroke="#666666" points="287.45,-2615.95 285,-2608.95 282.55,-2615.95 287.45,-2615.95"/>
</g>
<!-- P3 -->
<g id="node8" class="node">
<title>P3</title>
<path fill="#e8f5e9" stroke="#2e7d32" stroke-width="1.4" d="M349.5,-2507.25C349.5,-2507.25 220.5,-2507.25 220.5,-2507.25 214.5,-2507.25 208.5,-2501.25 208.5,-2495.25 208.5,-2495.25 208.5,-2430.25 208.5,-2430.25 208.5,-2424.25 214.5,-2418.25 220.5,-2418.25 220.5,-2418.25 349.5,-2418.25 349.5,-2418.25 355.5,-2418.25 361.5,-2424.25 361.5,-2430.25 361.5,-2430.25 361.5,-2495.25 361.5,-2495.25 361.5,-2501.25 355.5,-2507.25 349.5,-2507.25"/>
<text text-anchor="start" x="219.5" y="-2493.45" font-family="Helvetica,sans-Serif" font-weight="bold" font-size="11.00">Sections to complete</text>
<text text-anchor="start" x="219.5" y="-2482.45" font-family="Helvetica,sans-Serif" font-size="11.00">1. Project info</text>
<text text-anchor="start" x="219.5" y="-2471.45" font-family="Helvetica,sans-Serif" font-size="11.00">2. Executive summary</text>
<text text-anchor="start" x="219.5" y="-2460.45" font-family="Helvetica,sans-Serif" font-size="11.00">3. Financial profile</text>
<text text-anchor="start" x="219.5" y="-2449.45" font-family="Helvetica,sans-Serif" font-size="11.00">4. Benefits</text>
<text text-anchor="start" x="219.5" y="-2438.45" font-family="Helvetica,sans-Serif" font-size="11.00">5. Security</text>
<text text-anchor="start" x="219.5" y="-2427.45" font-family="Helvetica,sans-Serif" font-size="11.00">6. Architecture</text>
</g>
<!-- P2&#45;&gt;P3 -->
<g id="edge6" class="edge">
<title>P2&#45;&gt;P3</title>
<path fill="none" stroke="#666666" d="M285,-2572.39C285,-2557.45 285,-2535.06 285,-2514.48"/>
<polygon fill="#666666" stroke="#666666" points="287.45,-2514.29 285,-2507.29 282.55,-2514.29 287.45,-2514.29"/>
</g>
<!-- P4 -->
<g id="node9" class="node">
<title>P4</title>
<path fill="#e8f5e9" stroke="#2e7d32" stroke-width="1.4" d="M401.5,-2352.88C401.5,-2352.88 240.5,-2352.88 240.5,-2352.88 234.5,-2352.88 228.5,-2346.88 228.5,-2340.88 228.5,-2340.88 228.5,-2328.88 228.5,-2328.88 228.5,-2322.88 234.5,-2316.88 240.5,-2316.88 240.5,-2316.88 401.5,-2316.88 401.5,-2316.88 407.5,-2316.88 413.5,-2322.88 413.5,-2328.88 413.5,-2328.88 413.5,-2340.88 413.5,-2340.88 413.5,-2346.88 407.5,-2352.88 401.5,-2352.88"/>
<text text-anchor="start" x="266.5" y="-2338.07" font-family="Helvetica,sans-Serif" font-weight="bold" font-size="11.00">Add collaborators</text>
<text text-anchor="start" x="239.5" y="-2327.07" font-family="Helvetica,sans-Serif" font-size="11.00">Director prime · involved BUs</text>
</g>
<!-- P3&#45;&gt;P4 -->
<g id="edge7" class="edge">
<title>P3&#45;&gt;P4</title>
<path fill="none" stroke="#666666" d="M297.49,-2418.08C303.06,-2398.62 309.4,-2376.44 314.09,-2360.03"/>
<polygon fill="#666666" stroke="#666666" points="316.55,-2360.33 316.12,-2352.93 311.84,-2358.98 316.55,-2360.33"/>
</g>
<!-- TRIAGE -->
<g id="node10" class="node">
<title>TRIAGE</title>
<path fill="#e3f2fd" stroke="#1565c0" stroke-width="1.4" d="M338.96,-2246.79C338.96,-2246.79 242.59,-2205.71 242.59,-2205.71 237.07,-2203.35 237.07,-2198.65 242.59,-2196.29 242.59,-2196.29 338.96,-2155.21 338.96,-2155.21 344.48,-2152.85 355.52,-2152.85 361.04,-2155.21 361.04,-2155.21 457.41,-2196.29 457.41,-2196.29 462.93,-2198.65 462.93,-2203.35 457.41,-2205.71 457.41,-2205.71 361.04,-2246.79 361.04,-2246.79 355.52,-2249.15 344.48,-2249.15 338.96,-2246.79"/>
<text text-anchor="start" x="295.5" y="-2209.7" font-family="Helvetica,sans-Serif" font-weight="bold" font-size="11.00">Funding available</text>
<text text-anchor="start" x="336.5" y="-2198.7" font-family="Helvetica,sans-Serif" font-weight="bold" font-size="11.00">AND</text>
<text text-anchor="start" x="286" y="-2187.7" font-family="Helvetica,sans-Serif" font-weight="bold" font-size="11.00">resources available?</text>
</g>
<!-- P4&#45;&gt;TRIAGE -->
<g id="edge8" class="edge">
<title>P4&#45;&gt;TRIAGE</title>
<path fill="none" stroke="#666666" d="M324.79,-2316.63C328.27,-2300.82 333.6,-2276.57 338.47,-2254.43"/>
<polygon fill="#666666" stroke="#666666" points="340.92,-2254.7 340.03,-2247.33 336.13,-2253.65 340.92,-2254.7"/>
</g>
<!-- N1 -->
<g id="node11" class="node">
<title>N1</title>
<path fill="#e8f5e9" stroke="#2e7d32" stroke-width="1.4" d="M489,-1314C489,-1314 359,-1314 359,-1314 353,-1314 347,-1308 347,-1302 347,-1302 347,-1290 347,-1290 347,-1284 353,-1278 359,-1278 359,-1278 489,-1278 489,-1278 495,-1278 501,-1284 501,-1290 501,-1290 501,-1302 501,-1302 501,-1308 495,-1314 489,-1314"/>
<text text-anchor="middle" x="424" y="-1293.2" font-family="Helvetica,sans-Serif" font-size="11.00">Submit for NIC approval</text>
</g>
<!-- TRIAGE&#45;&gt;N1 -->
<g id="edge25" class="edge">
<title>TRIAGE&#45;&gt;N1</title>
<path fill="none" stroke="#666666" d="M350,-2150.21C350,-2122.85 350,-2088.3 350,-2057.5 350,-2057.5 350,-2057.5 350,-1415 350,-1394.88 357.82,-1375.38 368.37,-1358.21"/>
<polygon fill="#666666" stroke="#666666" points="370.64,-1359.21 372.37,-1352 366.52,-1356.55 370.64,-1359.21"/>
<text text-anchor="middle" x="357.5" y="-1751.8" font-family="Helvetica,sans-Serif" font-size="9.00" fill="#2e7d32">Yes</text>
</g>
<!-- I1 -->
<g id="node19" class="node">
<title>I1</title>
<path fill="#fff3e0" stroke="#e65100" stroke-width="1.4" d="M560.5,-2074.5C560.5,-2074.5 467.5,-2074.5 467.5,-2074.5 461.5,-2074.5 455.5,-2068.5 455.5,-2062.5 455.5,-2062.5 455.5,-2050.5 455.5,-2050.5 455.5,-2044.5 461.5,-2038.5 467.5,-2038.5 467.5,-2038.5 560.5,-2038.5 560.5,-2038.5 566.5,-2038.5 572.5,-2044.5 572.5,-2050.5 572.5,-2050.5 572.5,-2062.5 572.5,-2062.5 572.5,-2068.5 566.5,-2074.5 560.5,-2074.5"/>
<text text-anchor="middle" x="514" y="-2053.7" font-family="Helvetica,sans-Serif" font-size="11.00">Submit for intake</text>
</g>
<!-- TRIAGE&#45;&gt;I1 -->
<g id="edge26" class="edge">
<title>TRIAGE&#45;&gt;I1</title>
<path fill="none" stroke="#666666" d="M388.45,-2166.59C405.4,-2151.87 425.84,-2134.11 445.26,-2117.23"/>
<polygon fill="#666666" stroke="#666666" points="447.03,-2118.94 450.7,-2112.5 443.81,-2115.24 447.03,-2118.94"/>
<text text-anchor="middle" x="442.5" y="-2123.3" font-family="Helvetica,sans-Serif" font-size="9.00" fill="#e65100">No</text>
</g>
<!-- N2 -->
<g id="node12" class="node">
<title>N2</title>
<path fill="#e8f5e9" stroke="#2e7d32" stroke-width="1.4" d="M511.5,-1237C511.5,-1237 336.5,-1237 336.5,-1237 330.5,-1237 324.5,-1231 324.5,-1225 324.5,-1225 324.5,-1204 324.5,-1204 324.5,-1198 330.5,-1192 336.5,-1192 336.5,-1192 511.5,-1192 511.5,-1192 517.5,-1192 523.5,-1198 523.5,-1204 523.5,-1204 523.5,-1225 523.5,-1225 523.5,-1231 517.5,-1237 511.5,-1237"/>
<text text-anchor="start" x="344" y="-1223.2" font-family="Helvetica,sans-Serif" font-weight="bold" font-size="11.00">Notification to NIC Primes</text>
<text text-anchor="start" x="335.5" y="-1212.2" font-family="Helvetica,sans-Serif" font-size="11.00">Finance · Architecture · Security</text>
<text text-anchor="start" x="375.5" y="-1201.2" font-family="Helvetica,sans-Serif" font-size="11.00">Network domains</text>
</g>
<!-- N1&#45;&gt;N2 -->
<g id="edge9" class="edge">
<title>N1&#45;&gt;N2</title>
<path fill="none" stroke="#666666" d="M424,-1277.75C424,-1268.01 424,-1255.58 424,-1244.4"/>
<polygon fill="#666666" stroke="#666666" points="426.45,-1244.27 424,-1237.27 421.55,-1244.27 426.45,-1244.27"/>
</g>
<!-- N3 -->
<g id="node13" class="node">
<title>N3</title>
<path fill="#e8f5e9" stroke="#2e7d32" stroke-width="1.4" d="M501.5,-1132C501.5,-1132 346.5,-1132 346.5,-1132 340.5,-1132 334.5,-1126 334.5,-1120 334.5,-1120 334.5,-1099 334.5,-1099 334.5,-1093 340.5,-1087 346.5,-1087 346.5,-1087 501.5,-1087 501.5,-1087 507.5,-1087 513.5,-1093 513.5,-1099 513.5,-1099 513.5,-1120 513.5,-1120 513.5,-1126 507.5,-1132 501.5,-1132"/>
<text text-anchor="start" x="345.5" y="-1118.2" font-family="Helvetica,sans-Serif" font-weight="bold" font-size="11.00">Due diligence per section</text>
<text text-anchor="start" x="378.5" y="-1107.2" font-family="Helvetica,sans-Serif" font-size="11.00">Level of concern</text>
<text text-anchor="start" x="351" y="-1096.2" font-family="Helvetica,sans-Serif" font-size="11.00" fill="#2e7d32">●</text>
<text text-anchor="start" x="361" y="-1096.2" font-family="Helvetica,sans-Serif" font-size="11.00"> Green &#160;</text>
<text text-anchor="start" x="406" y="-1096.2" font-family="Helvetica,sans-Serif" font-size="11.00" fill="#f57f17">●</text>
<text text-anchor="start" x="416" y="-1096.2" font-family="Helvetica,sans-Serif" font-size="11.00"> Yellow &#160;</text>
<text text-anchor="start" x="462" y="-1096.2" font-family="Helvetica,sans-Serif" font-size="11.00" fill="#c62828">●</text>
<text text-anchor="start" x="472" y="-1096.2" font-family="Helvetica,sans-Serif" font-size="11.00"> Red</text>
</g>
<!-- N2&#45;&gt;N3 -->
<g id="edge10" class="edge">
<title>N2&#45;&gt;N3</title>
<path fill="none" stroke="#666666" d="M424,-1191.66C424,-1176.5 424,-1156.14 424,-1139.61"/>
<polygon fill="#666666" stroke="#666666" points="426.45,-1139.31 424,-1132.31 421.55,-1139.31 426.45,-1139.31"/>
</g>
<!-- N4 -->
<g id="node14" class="node">
<title>N4</title>
<path fill="#e8f5e9" stroke="#2e7d32" stroke-width="1.4" d="M487.5,-1046C487.5,-1046 360.5,-1046 360.5,-1046 354.5,-1046 348.5,-1040 348.5,-1034 348.5,-1034 348.5,-1022 348.5,-1022 348.5,-1016 354.5,-1010 360.5,-1010 360.5,-1010 487.5,-1010 487.5,-1010 493.5,-1010 499.5,-1016 499.5,-1022 499.5,-1022 499.5,-1034 499.5,-1034 499.5,-1040 493.5,-1046 487.5,-1046"/>
<text text-anchor="start" x="359.5" y="-1031.2" font-family="Helvetica,sans-Serif" font-weight="bold" font-size="11.00">Upload required files</text>
<text text-anchor="start" x="375.5" y="-1020.2" font-family="Helvetica,sans-Serif" font-size="11.00">IVA · Finance files</text>
</g>
<!-- N3&#45;&gt;N4 -->
<g id="edge11" class="edge">
<title>N3&#45;&gt;N4</title>
<path fill="none" stroke="#666666" d="M424,-1086.78C424,-1076.39 424,-1063.93 424,-1053.23"/>
<polygon fill="#666666" stroke="#666666" points="426.45,-1053.16 424,-1046.16 421.55,-1053.16 426.45,-1053.16"/>
</g>
<!-- N5 -->
<g id="node15" class="node">
<title>N5</title>
<path fill="#e8f5e9" stroke="#2e7d32" stroke-width="1.4" d="M521.5,-969C521.5,-969 326.5,-969 326.5,-969 320.5,-969 314.5,-963 314.5,-957 314.5,-957 314.5,-945 314.5,-945 314.5,-939 320.5,-933 326.5,-933 326.5,-933 521.5,-933 521.5,-933 527.5,-933 533.5,-939 533.5,-945 533.5,-945 533.5,-957 533.5,-957 533.5,-963 527.5,-969 521.5,-969"/>
<text text-anchor="start" x="325.5" y="-954.2" font-family="Helvetica,sans-Serif" font-weight="bold" font-size="11.00">NIC Chair schedules the NIC call</text>
<text text-anchor="start" x="342.5" y="-943.2" font-family="Helvetica,sans-Serif" font-size="11.00">Generates draft email + deck</text>
</g>
<!-- N4&#45;&gt;N5 -->
<g id="edge12" class="edge">
<title>N4&#45;&gt;N5</title>
<path fill="none" stroke="#666666" d="M424,-1009.98C424,-1000.08 424,-987.43 424,-976.47"/>
<polygon fill="#666666" stroke="#666666" points="426.45,-976.21 424,-969.21 421.55,-976.21 426.45,-976.21"/>
</g>
<!-- N6 -->
<g id="node16" class="node">
<title>N6</title>
<path fill="#e3f2fd" stroke="#1565c0" stroke-width="1.4" d="M413.09,-887C413.09,-887 348.72,-857.5 348.72,-857.5 343.27,-855 343.27,-850 348.72,-847.5 348.72,-847.5 413.09,-818 413.09,-818 418.55,-815.5 429.45,-815.5 434.91,-818 434.91,-818 499.28,-847.5 499.28,-847.5 504.73,-850 504.73,-855 499.28,-857.5 499.28,-857.5 434.91,-887 434.91,-887 429.45,-889.5 418.55,-889.5 413.09,-887"/>
<text text-anchor="start" x="377" y="-850.7" font-family="Helvetica,sans-Serif" font-weight="bold" font-size="11.00">Project &gt; $5M?</text>
</g>
<!-- N5&#45;&gt;N6 -->
<g id="edge13" class="edge">
<title>N5&#45;&gt;N6</title>
<path fill="none" stroke="#666666" d="M424,-932.75C424,-923.41 424,-911.39 424,-899.54"/>
<polygon fill="#666666" stroke="#666666" points="426.45,-899.21 424,-892.21 421.55,-899.21 426.45,-899.21"/>
</g>
<!-- N7 -->
<g id="node17" class="node">
<title>N7</title>
<path fill="#e8f5e9" stroke="#2e7d32" stroke-width="1.4" d="M422,-763C422,-763 300,-763 300,-763 294,-763 288,-757 288,-751 288,-751 288,-739 288,-739 288,-733 294,-727 300,-727 300,-727 422,-727 422,-727 428,-727 434,-733 434,-739 434,-739 434,-751 434,-751 434,-757 428,-763 422,-763"/>
<text text-anchor="middle" x="361" y="-742.2" font-family="Helvetica,sans-Serif" font-size="11.00">Standard NIC approval</text>
</g>
<!-- N6&#45;&gt;N7 -->
<g id="edge14" class="edge">
<title>N6&#45;&gt;N7</title>
<path fill="none" stroke="#666666" d="M405.95,-821.27C396.08,-804.75 384.06,-784.61 374.93,-769.32"/>
<polygon fill="#666666" stroke="#666666" points="376.9,-767.84 371.2,-763.09 372.69,-770.35 376.9,-767.84"/>
<text text-anchor="middle" x="394.5" y="-785.8" font-family="Helvetica,sans-Serif" font-size="9.00">No</text>
</g>
<!-- N8 -->
<g id="node18" class="node">
<title>N8</title>
<path fill="#e8f5e9" stroke="#2e7d32" stroke-width="1.4" d="M660.5,-763C660.5,-763 471.5,-763 471.5,-763 465.5,-763 459.5,-757 459.5,-751 459.5,-751 459.5,-739 459.5,-739 459.5,-733 465.5,-727 471.5,-727 471.5,-727 660.5,-727 660.5,-727 666.5,-727 672.5,-733 672.5,-739 672.5,-739 672.5,-751 672.5,-751 672.5,-757 666.5,-763 660.5,-763"/>
<text text-anchor="start" x="470.5" y="-748.2" font-family="Helvetica,sans-Serif" font-weight="bold" font-size="11.00">Escalate to MERCO (President)</text>
<text text-anchor="start" x="523" y="-737.2" font-family="Helvetica,sans-Serif" font-size="11.00">via deck export</text>
</g>
<!-- N6&#45;&gt;N8 -->
<g id="edge15" class="edge">
<title>N6&#45;&gt;N8</title>
<path fill="none" stroke="#666666" d="M456.22,-827.56C480.51,-809.51 513.54,-784.98 537,-767.54"/>
<polygon fill="#666666" stroke="#666666" points="538.59,-769.41 542.75,-763.27 535.67,-765.48 538.59,-769.41"/>
<text text-anchor="middle" x="523.5" y="-785.8" font-family="Helvetica,sans-Serif" font-size="9.00">Yes</text>
</g>
<!-- V1 -->
<g id="node29" class="node">
<title>V1</title>
<path fill="#fce4ec" stroke="#ad1457" stroke-width="1.4" d="M435.5,-660C435.5,-660 286.5,-660 286.5,-660 280.5,-660 274.5,-654 274.5,-648 274.5,-648 274.5,-636 274.5,-636 274.5,-630 280.5,-624 286.5,-624 286.5,-624 435.5,-624 435.5,-624 441.5,-624 447.5,-630 447.5,-636 447.5,-636 447.5,-648 447.5,-648 447.5,-654 441.5,-660 435.5,-660"/>
<text text-anchor="start" x="291.5" y="-645.2" font-family="Helvetica,sans-Serif" font-weight="bold" font-size="11.00">Review summary view</text>
<text text-anchor="start" x="285.5" y="-634.2" font-family="Helvetica,sans-Serif" font-size="11.00">4 key sections + indicators</text>
</g>
<!-- N7&#45;&gt;V1 -->
<g id="edge31" class="edge">
<title>N7&#45;&gt;V1</title>
<path fill="none" stroke="#666666" d="M361,-726.87C361,-710.62 361,-686.02 361,-667.66"/>
<polygon fill="#666666" stroke="#666666" points="363.45,-667.22 361,-660.22 358.55,-667.22 363.45,-667.22"/>
</g>
<!-- N8&#45;&gt;V1 -->
<g id="edge32" class="edge">
<title>N8&#45;&gt;V1</title>
<path fill="none" stroke="#666666" d="M512.46,-726.94C496.58,-721.25 479.34,-714.45 464,-707 438.43,-694.58 411.17,-677.46 391.13,-664.05"/>
<polygon fill="#666666" stroke="#666666" points="392.32,-661.9 385.15,-660.02 389.58,-665.96 392.32,-661.9"/>
</g>
<!-- I2 -->
<g id="node20" class="node">
<title>I2</title>
<path fill="#fff3e0" stroke="#e65100" stroke-width="1.4" d="M629,-1980.56C629,-1980.56 451,-1980.56 451,-1980.56 445,-1980.56 439,-1974.56 439,-1968.56 439,-1968.56 439,-1956.56 439,-1956.56 439,-1950.56 445,-1944.56 451,-1944.56 451,-1944.56 629,-1944.56 629,-1944.56 635,-1944.56 641,-1950.56 641,-1956.56 641,-1956.56 641,-1968.56 641,-1968.56 641,-1974.56 635,-1980.56 629,-1980.56"/>
<text text-anchor="start" x="450" y="-1965.76" font-family="Helvetica,sans-Serif" font-weight="bold" font-size="11.00">Mae receives the submission</text>
<text text-anchor="start" x="482.5" y="-1954.76" font-family="Helvetica,sans-Serif" font-size="11.00">Additional fields TBD</text>
</g>
<!-- I1&#45;&gt;I2 -->
<g id="edge16" class="edge">
<title>I1&#45;&gt;I2</title>
<path fill="none" stroke="#666666" d="M518.89,-2038.21C522.92,-2023.95 528.68,-2003.57 533.17,-1987.71"/>
<polygon fill="#666666" stroke="#666666" points="535.58,-1988.18 535.13,-1980.78 530.87,-1986.85 535.58,-1988.18"/>
</g>
<!-- I3 -->
<g id="node21" class="node">
<title>I3</title>
<path fill="#e8f5e9" stroke="#2e7d32" stroke-width="1.4" d="M588,-1892C588,-1892 502,-1892 502,-1892 496,-1892 490,-1886 490,-1880 490,-1880 490,-1868 490,-1868 490,-1862 496,-1856 502,-1856 502,-1856 588,-1856 588,-1856 594,-1856 600,-1862 600,-1868 600,-1868 600,-1880 600,-1880 600,-1886 594,-1892 588,-1892"/>
<text text-anchor="start" x="501" y="-1872.2" font-family="Helvetica,sans-Serif" font-weight="bold" font-size="11.00">Review cycles</text>
</g>
<!-- I2&#45;&gt;I3 -->
<g id="edge17" class="edge">
<title>I2&#45;&gt;I3</title>
<path fill="none" stroke="#666666" d="M540.99,-1944.46C541.73,-1931.54 542.77,-1913.63 543.6,-1899.23"/>
<polygon fill="#666666" stroke="#666666" points="546.06,-1899.2 544.01,-1892.07 541.16,-1898.91 546.06,-1899.2"/>
</g>
<!-- I4 -->
<g id="node22" class="node">
<title>I4</title>
<path fill="#e8f5e9" stroke="#2e7d32" stroke-width="1.4" d="M592.5,-1815C592.5,-1815 501.5,-1815 501.5,-1815 495.5,-1815 489.5,-1809 489.5,-1803 489.5,-1803 489.5,-1791 489.5,-1791 489.5,-1785 495.5,-1779 501.5,-1779 501.5,-1779 592.5,-1779 592.5,-1779 598.5,-1779 604.5,-1785 604.5,-1791 604.5,-1791 604.5,-1803 604.5,-1803 604.5,-1809 598.5,-1815 592.5,-1815"/>
<text text-anchor="start" x="501" y="-1800.2" font-family="Helvetica,sans-Serif" font-weight="bold" font-size="11.00">Weekly review</text>
<text text-anchor="start" x="500.5" y="-1789.2" font-family="Helvetica,sans-Serif" font-size="11.00">Senior Managers</text>
</g>
<!-- I3&#45;&gt;I4 -->
<g id="edge18" class="edge">
<title>I3&#45;&gt;I4</title>
<path fill="none" stroke="#666666" d="M545.45,-1855.98C545.72,-1846.08 546.06,-1833.43 546.35,-1822.47"/>
<polygon fill="#666666" stroke="#666666" points="548.8,-1822.27 546.54,-1815.21 543.91,-1822.14 548.8,-1822.27"/>
</g>
<!-- I5 -->
<g id="node23" class="node">
<title>I5</title>
<path fill="#e8f5e9" stroke="#2e7d32" stroke-width="1.4" d="M600.5,-1729C600.5,-1729 495.5,-1729 495.5,-1729 489.5,-1729 483.5,-1723 483.5,-1717 483.5,-1717 483.5,-1705 483.5,-1705 483.5,-1699 489.5,-1693 495.5,-1693 495.5,-1693 600.5,-1693 600.5,-1693 606.5,-1693 612.5,-1699 612.5,-1705 612.5,-1705 612.5,-1717 612.5,-1717 612.5,-1723 606.5,-1729 600.5,-1729"/>
<text text-anchor="start" x="494.5" y="-1714.2" font-family="Helvetica,sans-Serif" font-weight="bold" font-size="11.00">Bi&#45;weekly review</text>
<text text-anchor="start" x="496.5" y="-1703.2" font-family="Helvetica,sans-Serif" font-size="11.00">Directors — Friday</text>
</g>
<!-- I4&#45;&gt;I5 -->
<g id="edge19" class="edge">
<title>I4&#45;&gt;I5</title>
<path fill="none" stroke="#666666" d="M547.21,-1778.6C547.35,-1766.35 547.55,-1749.8 547.71,-1736.26"/>
<polygon fill="#666666" stroke="#666666" points="550.16,-1736.12 547.8,-1729.1 545.26,-1736.07 550.16,-1736.12"/>
</g>
<!-- I6 -->
<g id="node24" class="node">
<title>I6</title>
<path fill="#e8f5e9" stroke="#2e7d32" stroke-width="1.4" d="M613,-1633C613,-1633 485,-1633 485,-1633 479,-1633 473,-1627 473,-1621 473,-1621 473,-1609 473,-1609 473,-1603 479,-1597 485,-1597 485,-1597 613,-1597 613,-1597 619,-1597 625,-1603 625,-1609 625,-1609 625,-1621 625,-1621 625,-1627 619,-1633 613,-1633"/>
<text text-anchor="middle" x="549" y="-1612.2" font-family="Helvetica,sans-Serif" font-size="11.00">VP escalation if needed</text>
</g>
<!-- I5&#45;&gt;I6 -->
<g id="edge20" class="edge">
<title>I5&#45;&gt;I6</title>
<path fill="none" stroke="#666666" d="M548.18,-1692.76C548.34,-1678.05 548.57,-1656.74 548.74,-1640.3"/>
<polygon fill="#666666" stroke="#666666" points="551.19,-1640.16 548.82,-1633.13 546.29,-1640.11 551.19,-1640.16"/>
</g>
<!-- I7 -->
<g id="node25" class="node">
<title>I7</title>
<path fill="#e3f2fd" stroke="#1565c0" stroke-width="1.4" d="M538.8,-1549.67C538.8,-1549.67 501.19,-1526.33 501.19,-1526.33 496.1,-1523.16 496.1,-1516.84 501.19,-1513.67 501.19,-1513.67 538.8,-1490.33 538.8,-1490.33 543.9,-1487.16 554.1,-1487.16 559.2,-1490.33 559.2,-1490.33 596.81,-1513.67 596.81,-1513.67 601.9,-1516.84 601.9,-1523.16 596.81,-1526.33 596.81,-1526.33 559.2,-1549.67 559.2,-1549.67 554.1,-1552.84 543.9,-1552.84 538.8,-1549.67"/>
<text text-anchor="start" x="521.5" y="-1518.2" font-family="Helvetica,sans-Serif" font-weight="bold" font-size="11.00">Outcome</text>
</g>
<!-- I6&#45;&gt;I7 -->
<g id="edge21" class="edge">
<title>I6&#45;&gt;I7</title>
<path fill="none" stroke="#666666" d="M549,-1596.94C549,-1587.48 549,-1575.24 549,-1563.37"/>
<polygon fill="#666666" stroke="#666666" points="551.45,-1563.06 549,-1556.06 546.55,-1563.06 551.45,-1563.06"/>
</g>
<!-- I8 -->
<g id="node26" class="node">
<title>I8</title>
<path fill="#e8f5e9" stroke="#2e7d32" stroke-width="1.4" d="M486,-1434C486,-1434 442,-1434 442,-1434 436,-1434 430,-1428 430,-1422 430,-1422 430,-1410 430,-1410 430,-1404 436,-1398 442,-1398 442,-1398 486,-1398 486,-1398 492,-1398 498,-1404 498,-1410 498,-1410 498,-1422 498,-1422 498,-1428 492,-1434 486,-1434"/>
<text text-anchor="middle" x="464" y="-1413.2" font-family="Helvetica,sans-Serif" font-size="11.00">Analysis</text>
</g>
<!-- I7&#45;&gt;I8 -->
<g id="edge22" class="edge">
<title>I7&#45;&gt;I8</title>
<path fill="none" stroke="#666666" d="M529.71,-1495.85C515.63,-1478.96 496.64,-1456.17 482.7,-1439.44"/>
<polygon fill="#666666" stroke="#666666" points="484.54,-1437.82 478.18,-1434.02 480.78,-1440.96 484.54,-1437.82"/>
</g>
<!-- I9 -->
<g id="node27" class="node">
<title>I9</title>
<path fill="#e8f5e9" stroke="#2e7d32" stroke-width="1.4" d="M565,-1434C565,-1434 535,-1434 535,-1434 529,-1434 523,-1428 523,-1422 523,-1422 523,-1410 523,-1410 523,-1404 529,-1398 535,-1398 535,-1398 565,-1398 565,-1398 571,-1398 577,-1404 577,-1410 577,-1410 577,-1422 577,-1422 577,-1428 571,-1434 565,-1434"/>
<text text-anchor="middle" x="550" y="-1413.2" font-family="Helvetica,sans-Serif" font-size="11.00">POC</text>
</g>
<!-- I7&#45;&gt;I9 -->
<g id="edge23" class="edge">
<title>I7&#45;&gt;I9</title>
<path fill="none" stroke="#666666" d="M549.34,-1484.18C549.48,-1470.1 549.64,-1454.17 549.76,-1441.36"/>
<polygon fill="#666666" stroke="#666666" points="552.21,-1441.24 549.83,-1434.22 547.31,-1441.19 552.21,-1441.24"/>
</g>
<!-- I10 -->
<g id="node28" class="node">
<title>I10</title>
<path fill="#e8f5e9" stroke="#2e7d32" stroke-width="1.4" d="M751.5,-1434C751.5,-1434 614.5,-1434 614.5,-1434 608.5,-1434 602.5,-1428 602.5,-1422 602.5,-1422 602.5,-1410 602.5,-1410 602.5,-1404 608.5,-1398 614.5,-1398 614.5,-1398 751.5,-1398 751.5,-1398 757.5,-1398 763.5,-1404 763.5,-1410 763.5,-1410 763.5,-1422 763.5,-1422 763.5,-1428 757.5,-1434 751.5,-1434"/>
<text text-anchor="middle" x="683" y="-1413.2" font-family="Helvetica,sans-Serif" font-size="11.00">Implementation approval</text>
</g>
<!-- I7&#45;&gt;I10 -->
<g id="edge24" class="edge">
<title>I7&#45;&gt;I10</title>
<path fill="none" stroke="#666666" d="M574.52,-1499.57C597.34,-1482.2 630.75,-1456.77 654.45,-1438.73"/>
<polygon fill="#666666" stroke="#666666" points="656.17,-1440.5 660.25,-1434.31 653.2,-1436.6 656.17,-1440.5"/>
</g>
<!-- I10&#45;&gt;N1 -->
<g id="edge27" class="edge">
<title>I10&#45;&gt;N1</title>
<path fill="none" stroke="#888888" stroke-dasharray="5,2" d="M619.63,-1397.94C583.98,-1388.34 546.47,-1378.21 546,-1378 510.98,-1362.15 474.77,-1336.77 451,-1318.65"/>
<polygon fill="#888888" stroke="#888888" points="452.27,-1316.53 445.23,-1314.2 449.28,-1320.42 452.27,-1316.53"/>
<text text-anchor="start" x="546" y="-1371.8" font-family="Helvetica,sans-Serif" font-weight="bold" font-size="9.00" fill="#666666">If funding needed</text>
<text text-anchor="start" x="554.5" y="-1362.8" font-family="Helvetica,sans-Serif" font-size="9.00" fill="#666666">loop back to NIC</text>
</g>
<!-- V2 -->
<g id="node30" class="node">
<title>V2</title>
<path fill="#e3f2fd" stroke="#1565c0" stroke-width="1.4" d="M345.31,-577.54C345.31,-577.54 296.19,-552.46 296.19,-552.46 290.84,-549.73 290.84,-544.27 296.19,-541.54 296.19,-541.54 345.31,-516.46 345.31,-516.46 350.66,-513.73 361.34,-513.73 366.69,-516.46 366.69,-516.46 415.81,-541.54 415.81,-541.54 421.16,-544.27 421.16,-549.73 415.81,-552.46 415.81,-552.46 366.69,-577.54 366.69,-577.54 361.34,-580.27 350.66,-580.27 345.31,-577.54"/>
<text text-anchor="start" x="320" y="-545.2" font-family="Helvetica,sans-Serif" font-weight="bold" font-size="11.00">VP decision</text>
</g>
<!-- V1&#45;&gt;V2 -->
<g id="edge28" class="edge">
<title>V1&#45;&gt;V2</title>
<path fill="none" stroke="#666666" d="M360.08,-623.94C359.56,-614.21 358.88,-601.56 358.22,-589.38"/>
<polygon fill="#666666" stroke="#666666" points="360.67,-589.15 357.84,-582.29 355.77,-589.41 360.67,-589.15"/>
</g>
<!-- V2&#45;&gt;P3 -->
<g id="edge33" class="edge">
<title>V2&#45;&gt;P3</title>
<path fill="none" stroke="#888888" stroke-dasharray="5,2" d="M300.31,-554.59C249.74,-564.04 183,-586.78 183,-641 183,-2335.88 183,-2335.88 183,-2335.88 183,-2365.44 200.19,-2391.94 220.46,-2412.91"/>
<polygon fill="#888888" stroke="#888888" points="218.98,-2414.91 225.67,-2418.13 222.45,-2411.44 218.98,-2414.91"/>
<text text-anchor="middle" x="226.5" y="-1456.8" font-family="Helvetica,sans-Serif" font-size="9.00" fill="#666666">Rejected / to revise</text>
</g>
<!-- V3 -->
<g id="node31" class="node">
<title>V3</title>
<path fill="#fce4ec" stroke="#ad1457" stroke-width="1.4" d="M426,-461C426,-461 286,-461 286,-461 280,-461 274,-455 274,-449 274,-449 274,-437 274,-437 274,-431 280,-425 286,-425 286,-425 426,-425 426,-425 432,-425 438,-431 438,-437 438,-437 438,-449 438,-449 438,-455 432,-461 426,-461"/>
<text text-anchor="start" x="303.5" y="-446.2" font-family="Helvetica,sans-Serif" font-weight="bold" font-size="11.00">Written approval</text>
<text text-anchor="start" x="285" y="-435.2" font-family="Helvetica,sans-Serif" font-size="11.00">Email or meeting minutes</text>
</g>
<!-- V2&#45;&gt;V3 -->
<g id="edge29" class="edge">
<title>V2&#45;&gt;V3</title>
<path fill="none" stroke="#666666" d="M356,-510.9C356,-496.83 356,-480.97 356,-468.23"/>
<polygon fill="#666666" stroke="#666666" points="358.45,-468.12 356,-461.12 353.55,-468.12 358.45,-468.12"/>
<text text-anchor="middle" x="378" y="-483.8" font-family="Helvetica,sans-Serif" font-size="9.00">Approved</text>
</g>
<!-- V4 -->
<g id="node32" class="node">
<title>V4</title>
<path fill="#fce4ec" stroke="#ad1457" stroke-width="1.4" d="M408,-384C408,-384 304,-384 304,-384 298,-384 292,-378 292,-372 292,-372 292,-360 292,-360 292,-354 298,-348 304,-348 304,-348 408,-348 408,-348 414,-348 420,-354 420,-360 420,-360 420,-372 420,-372 420,-378 414,-384 408,-384"/>
<text text-anchor="start" x="303" y="-369.2" font-family="Helvetica,sans-Serif" font-weight="bold" font-size="11.00">Funding released</text>
<text text-anchor="start" x="326.5" y="-358.2" font-family="Helvetica,sans-Serif" font-size="11.00">by Finance</text>
</g>
<!-- V3&#45;&gt;V4 -->
<g id="edge30" class="edge">
<title>V3&#45;&gt;V4</title>
<path fill="none" stroke="#666666" d="M356,-424.98C356,-415.08 356,-402.43 356,-391.47"/>
<polygon fill="#666666" stroke="#666666" points="358.45,-391.21 356,-384.21 353.55,-391.21 358.45,-391.21"/>
</g>
<!-- E1 -->
<g id="node33" class="node">
<title>E1</title>
<path fill="#e8f5e9" stroke="#2e7d32" stroke-width="1.4" d="M440,-281C440,-281 272,-281 272,-281 266,-281 260,-275 260,-269 260,-269 260,-257 260,-257 260,-251 266,-245 272,-245 272,-245 440,-245 440,-245 446,-245 452,-251 452,-257 452,-257 452,-269 452,-269 452,-275 446,-281 440,-281"/>
<text text-anchor="start" x="271" y="-266.2" font-family="Helvetica,sans-Serif" font-weight="bold" font-size="11.00">TPM executes the initiative</text>
<text text-anchor="start" x="278" y="-255.2" font-family="Helvetica,sans-Serif" font-size="11.00">Jira Portfolio — ONWP prefix</text>
</g>
<!-- V4&#45;&gt;E1 -->
<g id="edge37" class="edge">
<title>V4&#45;&gt;E1</title>
<path fill="none" stroke="#666666" d="M356,-347.87C356,-331.62 356,-307.02 356,-288.66"/>
<polygon fill="#666666" stroke="#666666" points="358.45,-288.22 356,-281.22 353.55,-288.22 358.45,-288.22"/>
</g>
<!-- E2 -->
<g id="node34" class="node">
<title>E2</title>
<path fill="#e8f5e9" stroke="#2e7d32" stroke-width="1.4" d="M438,-204C438,-204 274,-204 274,-204 268,-204 262,-198 262,-192 262,-192 262,-173 262,-173 262,-167 268,-161 274,-161 274,-161 438,-161 438,-161 444,-161 450,-167 450,-173 450,-173 450,-192 450,-192 450,-198 444,-204 438,-204"/>
<text text-anchor="start" x="273" y="-190.2" font-family="Helvetica,sans-Serif" font-weight="bold" font-size="11.00">Mae tracks plan vs actuals</text>
<text text-anchor="start" x="316.5" y="-179.2" font-family="Helvetica,sans-Serif" font-size="11.00">at PEATS level</text>
<text text-anchor="start" x="306" y="-169.8" font-family="Helvetica,sans-Serif" font-size="9.00" fill="#666666">(not at initiative level)</text>
</g>
<!-- E1&#45;&gt;E2 -->
<g id="edge34" class="edge">
<title>E1&#45;&gt;E2</title>
<path fill="none" stroke="#666666" d="M356,-244.97C356,-235.13 356,-222.51 356,-211.27"/>
<polygon fill="#666666" stroke="#666666" points="358.45,-211.13 356,-204.13 353.55,-211.13 358.45,-211.13"/>
</g>
<!-- E3 -->
<g id="node35" class="node">
<title>E3</title>
<path fill="#e8f5e9" stroke="#2e7d32" stroke-width="1.4" d="M334,-116.5C334,-116.5 162,-116.5 162,-116.5 156,-116.5 150,-110.5 150,-104.5 150,-104.5 150,-92.5 150,-92.5 150,-86.5 156,-80.5 162,-80.5 162,-80.5 334,-80.5 334,-80.5 340,-80.5 346,-86.5 346,-92.5 346,-92.5 346,-104.5 346,-104.5 346,-110.5 340,-116.5 334,-116.5"/>
<text text-anchor="start" x="187.5" y="-101.7" font-family="Helvetica,sans-Serif" font-weight="bold" font-size="11.00">Forecasting module</text>
<text text-anchor="start" x="161" y="-90.7" font-family="Helvetica,sans-Serif" font-size="11.00">Monthly tracking — YE forecast</text>
</g>
<!-- E2&#45;&gt;E3 -->
<g id="edge35" class="edge">
<title>E2&#45;&gt;E3</title>
<path fill="none" stroke="#666666" d="M328.75,-160.81C312.72,-148.64 292.48,-133.28 276.28,-120.97"/>
<polygon fill="#666666" stroke="#666666" points="277.57,-118.87 270.51,-116.59 274.6,-122.77 277.57,-118.87"/>
</g>
<!-- E4 -->
<g id="node36" class="node">
<title>E4</title>
<path fill="#fff3e0" stroke="#e65100" stroke-width="1.4" d="M545.5,-120C545.5,-120 382.5,-120 382.5,-120 376.5,-120 370.5,-114 370.5,-108 370.5,-108 370.5,-89 370.5,-89 370.5,-83 376.5,-77 382.5,-77 382.5,-77 545.5,-77 545.5,-77 551.5,-77 557.5,-83 557.5,-89 557.5,-89 557.5,-108 557.5,-108 557.5,-114 551.5,-120 545.5,-120"/>
<text text-anchor="start" x="427.5" y="-106.2" font-family="Helvetica,sans-Serif" font-weight="bold" font-size="11.00">LRP module</text>
<text text-anchor="start" x="381.5" y="-95.2" font-family="Helvetica,sans-Serif" font-size="11.00">2× per year — 3&#45;year horizon</text>
<text text-anchor="start" x="396.5" y="-85.8" font-family="Helvetica,sans-Serif" font-size="9.00" fill="#e65100">(to redefine with Cloud team)</text>
</g>
<!-- E2&#45;&gt;E4 -->
<g id="edge36" class="edge">
<title>E2&#45;&gt;E4</title>
<path fill="none" stroke="#666666" d="M383.25,-160.81C397.71,-149.83 415.58,-136.26 430.83,-124.68"/>
<polygon fill="#666666" stroke="#666666" points="432.66,-126.37 436.76,-120.19 429.7,-122.47 432.66,-126.37"/>
</g>
<!-- PC -->
<g id="node37" class="node">
<title>PC</title>
<path fill="#e8f5e9" stroke="#2e7d32" stroke-width="2" d="M434,-36C434,-36 276,-36 276,-36 270,-36 264,-30 264,-24 264,-24 264,-12 264,-12 264,-6 270,0 276,0 276,0 434,0 434,0 440,0 446,-6 446,-12 446,-12 446,-24 446,-24 446,-30 440,-36 434,-36"/>
<text text-anchor="start" x="275" y="-21.2" font-family="Helvetica,sans-Serif" font-weight="bold" font-size="11.00">PHASE 5 — PEATS closure</text>
<text text-anchor="start" x="291.5" y="-10.2" font-family="Helvetica,sans-Serif" font-size="11.00">Closing documentation</text>
</g>
<!-- E3&#45;&gt;PC -->
<g id="edge38" class="edge">
<title>E3&#45;&gt;PC</title>
<path fill="none" stroke="#666666" d="M271.22,-80.47C287.34,-68.64 308.94,-52.79 326.17,-40.15"/>
<polygon fill="#666666" stroke="#666666" points="327.63,-42.12 331.83,-36 324.73,-38.17 327.63,-42.12"/>
</g>
<!-- E4&#45;&gt;PC -->
<g id="edge39" class="edge">
<title>E4&#45;&gt;PC</title>
<path fill="none" stroke="#666666" d="M435.36,-76.88C419.77,-65.65 400.5,-51.77 384.74,-40.42"/>
<polygon fill="#666666" stroke="#666666" points="385.78,-38.15 378.67,-36.05 382.92,-42.12 385.78,-38.15"/>
</g>
<!-- D1 -->
<g id="node38" class="node">
<title>D1</title>
<path fill="#f3e5f5" stroke="#6a1b9a" stroke-width="1.4" d="M990.5,-2716.4C990.5,-2718.73 945.01,-2720.63 889,-2720.63 832.99,-2720.63 787.5,-2718.73 787.5,-2716.4 787.5,-2716.4 787.5,-2678.35 787.5,-2678.35 787.5,-2676.02 832.99,-2674.12 889,-2674.12 945.01,-2674.12 990.5,-2676.02 990.5,-2678.35 990.5,-2678.35 990.5,-2716.4 990.5,-2716.4"/>
<path fill="none" stroke="#6a1b9a" stroke-width="1.4" d="M990.5,-2716.4C990.5,-2714.07 945.01,-2712.17 889,-2712.17 832.99,-2712.17 787.5,-2714.07 787.5,-2716.4"/>
<text text-anchor="start" x="869" y="-2700.57" font-family="Helvetica,sans-Serif" font-weight="bold" font-size="11.00">PEATS</text>
<text text-anchor="start" x="798.5" y="-2689.57" font-family="Helvetica,sans-Serif" font-size="11.00">Wallets · corporate classification</text>
</g>
<!-- D1&#45;&gt;P2 -->
<g id="edge46" class="edge">
<title>D1&#45;&gt;P2</title>
<path fill="none" stroke="#6a1b9a" stroke-dasharray="1,5" d="M787.22,-2678.72C676.9,-2659.59 501.71,-2629.21 390.11,-2609.85"/>
<polygon fill="#6a1b9a" stroke="#6a1b9a" points="390.5,-2607.43 383.18,-2608.65 389.66,-2612.26 390.5,-2607.43"/>
<text text-anchor="middle" x="670" y="-2646.8" font-family="Helvetica,sans-Serif" font-size="9.00" fill="#6a1b9a">Auto&#45;pull</text>
<text text-anchor="middle" x="670" y="-2636.8" font-family="Helvetica,sans-Serif" font-size="9.00" fill="#6a1b9a">classification</text>
</g>
<!-- D2 -->
<g id="node39" class="node">
<title>D2</title>
<path fill="#f3e5f5" stroke="#6a1b9a" stroke-width="1.4" d="M972.5,-2609.65C972.5,-2611.98 935.07,-2613.88 889,-2613.88 842.93,-2613.88 805.5,-2611.98 805.5,-2609.65 805.5,-2609.65 805.5,-2571.6 805.5,-2571.6 805.5,-2569.27 842.93,-2567.37 889,-2567.37 935.07,-2567.37 972.5,-2569.27 972.5,-2571.6 972.5,-2571.6 972.5,-2609.65 972.5,-2609.65"/>
<path fill="none" stroke="#6a1b9a" stroke-width="1.4" d="M972.5,-2609.65C972.5,-2607.32 935.07,-2605.42 889,-2605.42 842.93,-2605.42 805.5,-2607.32 805.5,-2609.65"/>
<text text-anchor="start" x="876.5" y="-2593.82" font-family="Helvetica,sans-Serif" font-weight="bold" font-size="11.00">SAP</text>
<text text-anchor="start" x="816.5" y="-2582.82" font-family="Helvetica,sans-Serif" font-size="11.00">Vendor contracts · actuals</text>
</g>
<!-- D1&#45;&gt;D2 -->
<!-- D2&#45;&gt;P3 -->
<g id="edge47" class="edge">
<title>D2&#45;&gt;P3</title>
<path fill="none" stroke="#6a1b9a" stroke-dasharray="1,5" d="M805.33,-2572.19C690.18,-2548.19 484.03,-2505.23 368.8,-2481.21"/>
<polygon fill="#6a1b9a" stroke="#6a1b9a" points="369.03,-2478.76 361.68,-2479.73 368.03,-2483.56 369.03,-2478.76"/>
<text text-anchor="middle" x="701.5" y="-2540.05" font-family="Helvetica,sans-Serif" font-size="9.00" fill="#6a1b9a">Vendor</text>
<text text-anchor="middle" x="701.5" y="-2530.05" font-family="Helvetica,sans-Serif" font-size="9.00" fill="#6a1b9a">dropdowns</text>
</g>
<!-- D2&#45;&gt;E2 -->
<g id="edge48" class="edge">
<title>D2&#45;&gt;E2</title>
<path fill="none" stroke="#6a1b9a" stroke-dasharray="1,5" d="M919.38,-2567.21C966.59,-2530.11 1055.13,-2450.77 1084,-2358.25 1100.37,-2305.78 1122.64,-2407.26 1062,-2033.12 965.76,-1439.33 946.68,-1283.19 738,-719 672.56,-542.09 651.86,-496.79 547,-340 515.99,-293.64 508.15,-280.34 465,-245 447.41,-230.59 425.98,-217.68 406.79,-207.46"/>
<polygon fill="#6a1b9a" stroke="#6a1b9a" points="407.72,-205.18 400.38,-204.1 405.44,-209.52 407.72,-205.18"/>
<text text-anchor="middle" x="955" y="-1293.8" font-family="Helvetica,sans-Serif" font-size="9.00" fill="#6a1b9a">Actuals</text>
</g>
<!-- D3 -->
<g id="node40" class="node">
<title>D3</title>
<path fill="#f3e5f5" stroke="#6a1b9a" stroke-width="1.4" d="M968.5,-2488.01C968.5,-2491.11 932.87,-2493.63 889,-2493.63 845.13,-2493.63 809.5,-2491.11 809.5,-2488.01 809.5,-2488.01 809.5,-2437.49 809.5,-2437.49 809.5,-2434.39 845.13,-2431.87 889,-2431.87 932.87,-2431.87 968.5,-2434.39 968.5,-2437.49 968.5,-2437.49 968.5,-2488.01 968.5,-2488.01"/>
<path fill="none" stroke="#6a1b9a" stroke-width="1.4" d="M968.5,-2488.01C968.5,-2484.91 932.87,-2482.4 889,-2482.4 845.13,-2482.4 809.5,-2484.91 809.5,-2488.01"/>
<text text-anchor="start" x="874.5" y="-2471.45" font-family="Helvetica,sans-Serif" font-weight="bold" font-size="11.00">FDW</text>
<text text-anchor="start" x="820.5" y="-2460.45" font-family="Helvetica,sans-Serif" font-size="11.00">Finance Data Warehouse</text>
<text text-anchor="start" x="837.5" y="-2449.45" font-family="Helvetica,sans-Serif" font-size="11.00">SAP + 3&#45;day delay</text>
</g>
<!-- D2&#45;&gt;D3 -->
<!-- D3&#45;&gt;E3 -->
<g id="edge49" class="edge">
<title>D3&#45;&gt;E3</title>
<path fill="none" stroke="#6a1b9a" stroke-dasharray="1,5" d="M941.63,-2432.29C967.69,-2414.56 996.59,-2389.38 1011,-2358.25 1051.59,-2270.58 1037.72,-1998.48 975,-1925 920.54,-1861.2 793,-1958.89 793,-1875 793,-1875 793,-1875 793,-1576 793,-1493.06 789.92,-1472.07 778,-1390 759.75,-1264.36 719,-1237.46 719,-1110.5 719,-1110.5 719,-1110.5 719,-787 719,-755.85 712.44,-748.35 702,-719 646.91,-564.07 608.32,-535.75 545,-384 504.33,-286.54 540.37,-232.87 463,-161 445.11,-144.38 392.87,-129.24 344.37,-118.14"/>
<polygon fill="#6a1b9a" stroke="#6a1b9a" points="344.62,-115.69 337.25,-116.54 343.54,-120.47 344.62,-115.69"/>
<text text-anchor="middle" x="757" y="-1217.3" font-family="Helvetica,sans-Serif" font-size="9.00" fill="#6a1b9a">Financial</text>
<text text-anchor="middle" x="757" y="-1207.3" font-family="Helvetica,sans-Serif" font-size="9.00" fill="#6a1b9a">data</text>
</g>
<!-- D4 -->
<g id="node41" class="node">
<title>D4</title>
<path fill="#f3e5f5" stroke="#6a1b9a" stroke-width="1.4" d="M975.5,-2353.9C975.5,-2356.23 936.73,-2358.13 889,-2358.13 841.27,-2358.13 802.5,-2356.23 802.5,-2353.9 802.5,-2353.9 802.5,-2315.85 802.5,-2315.85 802.5,-2313.52 841.27,-2311.62 889,-2311.62 936.73,-2311.62 975.5,-2313.52 975.5,-2315.85 975.5,-2315.85 975.5,-2353.9 975.5,-2353.9"/>
<path fill="none" stroke="#6a1b9a" stroke-width="1.4" d="M975.5,-2353.9C975.5,-2351.57 936.73,-2349.67 889,-2349.67 841.27,-2349.67 802.5,-2351.57 802.5,-2353.9"/>
<text text-anchor="start" x="813.5" y="-2338.07" font-family="Helvetica,sans-Serif" font-weight="bold" font-size="11.00">VP Management System</text>
<text text-anchor="start" x="822.5" y="-2327.07" font-family="Helvetica,sans-Serif" font-size="11.00">Network APIs · priorities</text>
</g>
<!-- D3&#45;&gt;D4 -->
<!-- D4&#45;&gt;P3 -->
<g id="edge50" class="edge">
<title>D4&#45;&gt;P3</title>
<path fill="none" stroke="#6a1b9a" stroke-dasharray="1,5" d="M802.01,-2354C686.26,-2378.13 482.99,-2420.49 368.85,-2444.27"/>
<polygon fill="#6a1b9a" stroke="#6a1b9a" points="368.16,-2441.92 361.8,-2445.74 369.16,-2446.71 368.16,-2441.92"/>
<text text-anchor="middle" x="696" y="-2391.05" font-family="Helvetica,sans-Serif" font-size="9.00" fill="#6a1b9a">Network</text>
<text text-anchor="middle" x="696" y="-2381.05" font-family="Helvetica,sans-Serif" font-size="9.00" fill="#6a1b9a">priorities</text>
</g>
<!-- D5 -->
<g id="node42" class="node">
<title>D5</title>
<path fill="#f3e5f5" stroke="#6a1b9a" stroke-width="1.4" d="M952,-2225.24C952,-2228.21 923.76,-2230.63 889,-2230.63 854.24,-2230.63 826,-2228.21 826,-2225.24 826,-2225.24 826,-2176.76 826,-2176.76 826,-2173.79 854.24,-2171.37 889,-2171.37 923.76,-2171.37 952,-2173.79 952,-2176.76 952,-2176.76 952,-2225.24 952,-2225.24"/>
<path fill="none" stroke="#6a1b9a" stroke-width="1.4" d="M952,-2225.24C952,-2222.27 923.76,-2219.85 889,-2219.85 854.24,-2219.85 826,-2222.27 826,-2225.24"/>
<text text-anchor="start" x="852" y="-2208.7" font-family="Helvetica,sans-Serif" font-weight="bold" font-size="11.00">ServiceNow</text>
<text text-anchor="start" x="837" y="-2197.7" font-family="Helvetica,sans-Serif" font-size="11.00">Security front door</text>
<text text-anchor="start" x="845" y="-2188.3" font-family="Helvetica,sans-Serif" font-size="9.00" fill="#e65100">(future integration)</text>
</g>
<!-- D4&#45;&gt;D5 -->
<!-- D5&#45;&gt;N3 -->
<g id="edge51" class="edge">
<title>D5&#45;&gt;N3</title>
<path fill="none" stroke="#6a1b9a" stroke-dasharray="1,5" d="M825.92,-2193.65C706.94,-2181.22 458.35,-2152.94 426,-2130.5 418.48,-2125.28 419.61,-2120.91 416,-2112.5 331.85,-1916.57 264.54,-1865.81 278,-1653 283.34,-1568.49 295.1,-1548.39 302,-1464 311.85,-1343.43 255.15,-1298.78 312,-1192 324.86,-1167.84 348.42,-1149.06 370.62,-1135.64"/>
<polygon fill="#6a1b9a" stroke="#6a1b9a" points="372.04,-1137.65 376.84,-1132 369.56,-1133.43 372.04,-1137.65"/>
<text text-anchor="middle" x="304.5" y="-1665.8" font-family="Helvetica,sans-Serif" font-size="9.00" fill="#6a1b9a">Security</text>
<text text-anchor="middle" x="304.5" y="-1655.8" font-family="Helvetica,sans-Serif" font-size="9.00" fill="#6a1b9a">assessment</text>
</g>
<!-- D6 -->
<g id="node43" class="node">
<title>D6</title>
<path fill="#f3e5f5" stroke="#6a1b9a" stroke-width="1.4" d="M954,-2075.52C954,-2077.86 924.87,-2079.75 889,-2079.75 853.13,-2079.75 824,-2077.86 824,-2075.52 824,-2075.52 824,-2037.48 824,-2037.48 824,-2035.14 853.13,-2033.25 889,-2033.25 924.87,-2033.25 954,-2035.14 954,-2037.48 954,-2037.48 954,-2075.52 954,-2075.52"/>
<path fill="none" stroke="#6a1b9a" stroke-width="1.4" d="M954,-2075.52C954,-2073.19 924.87,-2071.3 889,-2071.3 853.13,-2071.3 824,-2073.19 824,-2075.52"/>
<text text-anchor="start" x="850" y="-2059.7" font-family="Helvetica,sans-Serif" font-weight="bold" font-size="11.00">Jira Portfolio</text>
<text text-anchor="start" x="835" y="-2048.7" font-family="Helvetica,sans-Serif" font-size="11.00">ONWP — execution</text>
</g>
<!-- D5&#45;&gt;D6 -->
<!-- D6&#45;&gt;E1 -->
<g id="edge52" class="edge">
<title>D6&#45;&gt;E1</title>
<path fill="none" stroke="#6a1b9a" stroke-dasharray="1,5" d="M823.72,-2041.37C808.75,-2038.4 792.86,-2035.46 778,-2033.12 555.8,-1998.21 402.38,-2087.97 292,-1892 256.15,-1828.36 272.22,-1802.03 271,-1729 271,-1729 271,-1454 271,-1454 261.42,-1327.58 237.58,-1298.42 228,-1172 218.78,-1050.36 180.06,-716.15 260,-624 319.46,-555.46 402.64,-653.31 460,-583 494.14,-541.16 484.45,-388.15 460,-340 447.6,-315.58 423.26,-297.13 401.24,-284.53"/>
<polygon fill="#6a1b9a" stroke="#6a1b9a" points="402.41,-282.37 395.1,-281.13 400.04,-286.66 402.41,-282.37"/>
<text text-anchor="middle" x="251" y="-1164.8" font-family="Helvetica,sans-Serif" font-size="9.00" fill="#6a1b9a">Execution</text>
<text text-anchor="middle" x="251" y="-1154.8" font-family="Helvetica,sans-Serif" font-size="9.00" fill="#6a1b9a">tracking</text>
</g>
<!-- D7 -->
<g id="node44" class="node">
<title>D7</title>
<path fill="#f3e5f5" stroke="#6a1b9a" stroke-width="1.4" d="M962,-1986.8C962,-1989.77 929.28,-1992.19 889,-1992.19 848.72,-1992.19 816,-1989.77 816,-1986.8 816,-1986.8 816,-1938.32 816,-1938.32 816,-1935.35 848.72,-1932.94 889,-1932.94 929.28,-1932.94 962,-1935.35 962,-1938.32 962,-1938.32 962,-1986.8 962,-1986.8"/>
<path fill="none" stroke="#6a1b9a" stroke-width="1.4" d="M962,-1986.8C962,-1983.83 929.28,-1981.41 889,-1981.41 848.72,-1981.41 816,-1983.83 816,-1986.8"/>
<text text-anchor="start" x="854.5" y="-1970.26" font-family="Helvetica,sans-Serif" font-weight="bold" font-size="11.00">Confluence</text>
<text text-anchor="start" x="833" y="-1959.26" font-family="Helvetica,sans-Serif" font-size="11.00">LBC — current state</text>
<text text-anchor="start" x="827" y="-1949.86" font-family="Helvetica,sans-Serif" font-size="9.00" fill="#666666">(to migrate to Centrak 2.0)</text>
</g>
<!-- D6&#45;&gt;D7 -->
<!-- D7&#45;&gt;P2 -->
<g id="edge53" class="edge">
<title>D7&#45;&gt;P2</title>
<path fill="none" stroke="#6a1b9a" stroke-dasharray="1,5" d="M933.45,-1992.19C946.75,-2003.24 959.71,-2017.11 967,-2033.12 978.89,-2059.26 958.63,-2265.14 970,-2291.5 974.4,-2301.71 983.65,-2298.64 988,-2308.88 996.58,-2329.07 1000.99,-2340.56 988,-2358.25 974.84,-2376.18 818.16,-2411.39 797,-2418.25 631.29,-2472 436.34,-2538.03 341.94,-2570.18"/>
<polygon fill="#6a1b9a" stroke="#6a1b9a" points="340.88,-2567.95 335.04,-2572.53 342.46,-2572.59 340.88,-2567.95"/>
<text text-anchor="middle" x="987.5" y="-2284.3" font-family="Helvetica,sans-Serif" font-size="9.00" fill="#6a1b9a">Current</text>
<text text-anchor="middle" x="987.5" y="-2274.3" font-family="Helvetica,sans-Serif" font-size="9.00" fill="#6a1b9a">state</text>
</g>
</g>
</svg>
